# xmcd
#
# Track frame offsets:
#	150
#	28599
#	52193
#	81757
#	121930
#	146876
#	157839
#	179033
#	198961
#	241408
#	263964
#	295839
#
# Disc length: 4217 seconds
#
# Revision: 1
# Processed by: cddbd v1.5.2PL0 Copyright (c) Steve Scherf et al.
# Submitted via: audiograbber 1.83.01
#
DISCID=af10770c
DTITLE=Grateful Dead - 82-04-06 The Spectrum, Philadelphia PA
DYEAR=1900
DGENRE=
TTITLE0=Cold Rain and Snow
TTITLE1=Promised Land
TTITLE2=Candyman
TTITLE3=CC Rider
TTITLE4=Brown Eyed Women
TTITLE5=Mama Tried
TTITLE6=Mexicali Blues
TTITLE7=Big Railroad Blues
TTITLE8=Looks Like Rain
TTITLE9=Jack-A-Roe
TTITLE10=It's All Over Now
TTITLE11=Might As Well
EXTD=
EXTT0=
EXTT1=
EXTT2=
EXTT3=
EXTT4=
EXTT5=
EXTT6=
EXTT7=
EXTT8=
EXTT9=
EXTT10=
EXTT11=
PLAYORDER=
